<mxfile host="app.diagrams.net" modified="2023-11-13T19:34:57.061Z" agent="Mozilla/5.0 (Windows NT 10.0; Win64; x64) AppleWebKit/537.36 (KHTML, like Gecko) Chrome/119.0.0.0 Safari/537.36" etag="BWx8j5YXmO27pW0JG-Nv" version="22.1.0" type="onedrive">
  <diagram name="Page-1" id="5BmKu9sERtYqydeMWE9_">
    <mxGraphModel grid="1" page="1" gridSize="10" guides="1" tooltips="1" connect="1" arrows="1" fold="1" pageScale="1" pageWidth="827" pageHeight="1169" math="0" shadow="0">
      <root>
        <mxCell id="0" />
        <mxCell id="1" parent="0" />
        <mxCell id="mPgJThO0AiR79qdTyzll-1" value="&lt;font style=&quot;font-size: 18px;&quot;&gt;arrToStr&lt;/font&gt;" style="rounded=0;whiteSpace=wrap;html=1;" vertex="1" parent="1">
          <mxGeometry x="470" y="340" width="120" height="60" as="geometry" />
        </mxCell>
        <mxCell id="mPgJThO0AiR79qdTyzll-2" value="&lt;p style=&quot;color: rgb(56, 58, 66); font-family: Consolas, &amp;quot;Courier New&amp;quot;, monospace; line-height: 19px;&quot;&gt;&lt;font style=&quot;font-size: 18px;&quot;&gt;Name: kBQHAjmEelVSHUyT&amp;nbsp;&lt;br&gt;&amp;nbsp;Value:=&quot;c/blrFFGzJwUDWpdVBM1WO9x...8e7RRmnM=&lt;/font&gt;&lt;/p&gt;&lt;div style=&quot;color: rgb(56, 58, 66); background-color: rgb(250, 250, 250); font-family: Consolas, &amp;quot;Courier New&amp;quot;, monospace; font-size: 14px; line-height: 19px;&quot;&gt;&lt;div style=&quot;line-height: 19px;&quot;&gt;&lt;div&gt;&lt;span style=&quot;color: #a626a4;&quot;&gt;&lt;/span&gt;&lt;/div&gt;&lt;/div&gt;&lt;/div&gt;" style="ellipse;whiteSpace=wrap;html=1;align=center;" vertex="1" parent="1">
          <mxGeometry x="630" y="320" width="500" height="70" as="geometry" />
        </mxCell>
        <mxCell id="mPgJThO0AiR79qdTyzll-3" value="&lt;font style=&quot;font-size: 18px;&quot;&gt;settings.xml&lt;/font&gt;" style="text;html=1;strokeColor=none;fillColor=none;align=center;verticalAlign=middle;whiteSpace=wrap;rounded=0;" vertex="1" parent="1">
          <mxGeometry x="850" y="290" width="60" height="30" as="geometry" />
        </mxCell>
        <mxCell id="mPgJThO0AiR79qdTyzll-4" value="" style="endArrow=classic;html=1;rounded=0;exitX=0.5;exitY=1;exitDx=0;exitDy=0;" edge="1" parent="1" source="mPgJThO0AiR79qdTyzll-1" target="mPgJThO0AiR79qdTyzll-5">
          <mxGeometry width="50" height="50" relative="1" as="geometry">
            <mxPoint x="750" y="550" as="sourcePoint" />
            <mxPoint x="530" y="480" as="targetPoint" />
          </mxGeometry>
        </mxCell>
        <mxCell id="mPgJThO0AiR79qdTyzll-5" value="&lt;font style=&quot;font-size: 18px;&quot;&gt;createThrQutrArr&lt;/font&gt;" style="rounded=0;whiteSpace=wrap;html=1;" vertex="1" parent="1">
          <mxGeometry x="445" y="480" width="170" height="60" as="geometry" />
        </mxCell>
        <mxCell id="mPgJThO0AiR79qdTyzll-6" value="" style="endArrow=classic;html=1;rounded=0;exitX=0.5;exitY=1;exitDx=0;exitDy=0;entryX=0.5;entryY=0;entryDx=0;entryDy=0;edgeStyle=orthogonalEdgeStyle;" edge="1" parent="1" source="mPgJThO0AiR79qdTyzll-2" target="mPgJThO0AiR79qdTyzll-5">
          <mxGeometry width="50" height="50" relative="1" as="geometry">
            <mxPoint x="680" y="570" as="sourcePoint" />
            <mxPoint x="730" y="520" as="targetPoint" />
          </mxGeometry>
        </mxCell>
        <mxCell id="mPgJThO0AiR79qdTyzll-7" value="" style="endArrow=classic;html=1;rounded=0;exitX=0.5;exitY=1;exitDx=0;exitDy=0;startArrow=classic;startFill=1;" edge="1" parent="1" source="mPgJThO0AiR79qdTyzll-5" target="mPgJThO0AiR79qdTyzll-8">
          <mxGeometry width="50" height="50" relative="1" as="geometry">
            <mxPoint x="650" y="610" as="sourcePoint" />
            <mxPoint x="530" y="600" as="targetPoint" />
          </mxGeometry>
        </mxCell>
        <mxCell id="mPgJThO0AiR79qdTyzll-8" value="&lt;p&gt;&lt;font style=&quot;font-size: 18px;&quot;&gt;unicodeToAscii&lt;/font&gt;&lt;/p&gt;" style="rounded=0;whiteSpace=wrap;html=1;" vertex="1" parent="1">
          <mxGeometry x="440" y="600" width="180" height="60" as="geometry" />
        </mxCell>
        <mxCell id="mPgJThO0AiR79qdTyzll-9" value="kBQHAjmEelVSHUyT&amp;nbsp;" style="text;html=1;strokeColor=none;fillColor=none;align=center;verticalAlign=middle;whiteSpace=wrap;rounded=0;" vertex="1" parent="1">
          <mxGeometry x="510" y="554.5" width="170" height="30" as="geometry" />
        </mxCell>
        <mxCell id="mPgJThO0AiR79qdTyzll-12" value="" style="endArrow=classic;html=1;rounded=0;exitX=1;exitY=0.5;exitDx=0;exitDy=0;entryX=0.5;entryY=0;entryDx=0;entryDy=0;edgeStyle=orthogonalEdgeStyle;" edge="1" parent="1" source="mPgJThO0AiR79qdTyzll-5" target="mPgJThO0AiR79qdTyzll-13">
          <mxGeometry width="50" height="50" relative="1" as="geometry">
            <mxPoint x="670" y="620" as="sourcePoint" />
            <mxPoint x="780" y="580" as="targetPoint" />
          </mxGeometry>
        </mxCell>
        <mxCell id="mPgJThO0AiR79qdTyzll-13" value="&lt;font style=&quot;font-size: 18px;&quot;&gt;assignOnce&lt;/font&gt;" style="rounded=0;whiteSpace=wrap;html=1;" vertex="1" parent="1">
          <mxGeometry x="700" y="585" width="180" height="65" as="geometry" />
        </mxCell>
      </root>
    </mxGraphModel>
  </diagram>
</mxfile>
